# xmcd CD database file
#
# Track frame offsets:
#	150
#	12783
#	26910
#	44883
#	56430
#	79598
#	91908
#	103590
#	119723
#	133808
#	148118
#	165665
#	177195
#	196069
#	207432
#
# Disc length: 3006 seconds
#
# Revision: 0
# Processed by: cddbd v1.5.2PL0 Copyright (c) Steve Scherf et al.
# Submitted via: CDex 1.51
#
DISCID=d50bbc0f
DTITLE=Francis Goya - Historia De Un Amor
DYEAR=2010
DGENRE=Jazz
TTITLE0=Nostalgia
TTITLE1=Solamente Una Vez
TTITLE2=La Playa
TTITLE3=Quando, Quando, Quando
TTITLE4=Besame Mucho
TTITLE5=O'Cangaceiro
TTITLE6=Perfidia
TTITLE7=Blame It On The Bossa Nova
TTITLE8=Ave Maria No Morro
TTITLE9=Mona Lisa
TTITLE10=Aquellos Ojos Verdes
TTITLE11=Historia De Un Amor
TTITLE12=Amor De Mis Amores
TTITLE13=Cuando Salide Cuba
TTITLE14=Vaya Con Dios
EXTD=YEAR: 2010
EXTT0=
EXTT1=
EXTT2=
EXTT3=
EXTT4=
EXTT5=
EXTT6=
EXTT7=
EXTT8=
EXTT9=
EXTT10=
EXTT11=
EXTT12=
EXTT13=
EXTT14=
PLAYORDER=
